<?xml version="1.0" encoding="UTF-8" standalone="no"?>
<!-- Created with Inkscape (http://www.inkscape.org/) -->

<svg
   xmlns:dc="http://purl.org/dc/elements/1.1/"
   xmlns:cc="http://creativecommons.org/ns#"
   xmlns:rdf="http://www.w3.org/1999/02/22-rdf-syntax-ns#"
   xmlns:svg="http://www.w3.org/2000/svg"
   xmlns="http://www.w3.org/2000/svg"
   xmlns:sodipodi="http://sodipodi.sourceforge.net/DTD/sodipodi-0.dtd"
   xmlns:inkscape="http://www.inkscape.org/namespaces/inkscape"
   width="269.81277"
   height="209.31955"
   id="svg2"
   version="1.1"
   inkscape:version="0.48.4 r9939"
   sodipodi:docname="function1to1Example.tex">
  <defs
     id="defs4">
    <marker
       inkscape:stockid="Arrow2Mend"
       orient="auto"
       refY="0"
       refX="0"
       id="Arrow2Mend"
       style="overflow:visible">
      <path
         id="path3929"
         style="fill-rule:evenodd;stroke-width:0.625;stroke-linejoin:round"
         d="M 8.7185878,4.0337352 -2.2072895,0.01601326 8.7185884,-4.0017078 c -1.7454984,2.3720609 -1.7354408,5.6174519 -6e-7,8.035443 z"
         transform="scale(-0.6,-0.6)"
         inkscape:connector-curvature="0" />
    </marker>
    <marker
       inkscape:stockid="Arrow1Lend"
       orient="auto"
       refY="0"
       refX="0"
       id="Arrow1Lend"
       style="overflow:visible">
      <path
         id="path3905"
         d="M 0,0 5,-5 -12.5,0 5,5 0,0 z"
         style="fill-rule:evenodd;stroke:#000000;stroke-width:1pt"
         transform="matrix(-0.8,0,0,-0.8,-10,0)"
         inkscape:connector-curvature="0" />
    </marker>
  </defs>
  <sodipodi:namedview
     id="base"
     pagecolor="#ffffff"
     bordercolor="#666666"
     borderopacity="1.0"
     inkscape:pageopacity="0.0"
     inkscape:pageshadow="2"
     inkscape:zoom="2"
     inkscape:cx="162.2696"
     inkscape:cy="143.1718"
     inkscape:document-units="px"
     inkscape:current-layer="layer1"
     showgrid="false"
     inkscape:window-width="1058"
     inkscape:window-height="815"
     inkscape:window-x="135"
     inkscape:window-y="97"
     inkscape:window-maximized="0"
     inkscape:snap-global="true"
     inkscape:snap-bbox="true"
     fit-margin-top="0"
     fit-margin-left="0"
     fit-margin-right="0"
     fit-margin-bottom="0" />
  <metadata
     id="metadata7">
    <rdf:RDF>
      <cc:Work
         rdf:about="">
        <dc:format>image/svg+xml</dc:format>
        <dc:type
           rdf:resource="http://purl.org/dc/dcmitype/StillImage" />
        <dc:title></dc:title>
      </cc:Work>
    </rdf:RDF>
  </metadata>
  <g
     inkscape:label="Layer 1"
     inkscape:groupmode="layer"
     id="layer1"
     transform="translate(-57.259611,-55.186687)">
    <path
       sodipodi:type="arc"
       style="fill:#b3b3b3;fill-opacity:1;fill-rule:evenodd;stroke:none"
       id="path2985-8"
       sodipodi:cx="83"
       sodipodi:cy="107.86218"
       sodipodi:rx="26"
       sodipodi:ry="56.5"
       d="m 109,107.86218 c 0,31.20409 -11.640597,56.5 -26,56.5 -14.359403,0 -26,-25.29591 -26,-56.5 0,-31.204086 11.640597,-56.499997 26,-56.499997 14.359403,0 26,25.295911 26,56.499997 z"
       transform="matrix(2.1708032,0,0,1.8170963,90.454838,-34.15567)" />
    <path
       sodipodi:type="arc"
       style="fill:#b3b3b3;fill-opacity:1;fill-rule:evenodd;stroke:none"
       id="path2985"
       sodipodi:cx="83"
       sodipodi:cy="107.86218"
       sodipodi:rx="26"
       sodipodi:ry="56.5"
       d="m 109,107.86218 c 0,31.20409 -11.640597,56.5 -26,56.5 -14.359403,0 -26,-25.29591 -26,-56.5 0,-31.204086 11.640597,-56.499997 26,-56.499997 14.359403,0 26,25.295911 26,56.499997 z"
       transform="matrix(2.1708032,0,0,1.8170963,-66.476171,-38.143345)" />
    <path
       sodipodi:type="arc"
       style="fill:#000000;fill-opacity:1"
       id="path3761"
       sodipodi:cx="167"
       sodipodi:cy="88.362183"
       sodipodi:rx="6"
       sodipodi:ry="5"
       d="m 173,88.362183 c 0,2.761423 -2.68629,5 -6,5 -3.31371,0 -6,-2.238577 -6,-5 0,-2.761424 2.68629,-5 6,-5 3.31371,0 6,2.238576 6,5 z"
       transform="matrix(1.0632183,0,0,1.3292249,-91.925932,-6.123455)" />
    <path
       sodipodi:type="arc"
       style="fill:#000000;fill-opacity:1"
       id="path3761-1"
       sodipodi:cx="167"
       sodipodi:cy="88.362183"
       sodipodi:rx="6"
       sodipodi:ry="5"
       d="m 173,88.362183 c 0,2.761423 -2.68629,5 -6,5 -3.31371,0 -6,-2.238577 -6,-5 0,-2.761424 2.68629,-5 6,-5 3.31371,0 6,2.238576 6,5 z"
       transform="matrix(1.0632183,0,0,1.3292249,-65.132835,122.81136)" />
    <path
       sodipodi:type="arc"
       style="fill:#000000;fill-opacity:1"
       id="path3761-7"
       sodipodi:cx="167"
       sodipodi:cy="88.362183"
       sodipodi:rx="6"
       sodipodi:ry="5"
       d="m 173,88.362183 c 0,2.761423 -2.68629,5 -6,5 -3.31371,0 -6,-2.238577 -6,-5 0,-2.761424 2.68629,-5 6,-5 3.31371,0 6,2.238576 6,5 z"
       transform="matrix(1.0632183,0,0,1.3292249,-48.546618,66.983914)" />
    <path
       sodipodi:type="arc"
       style="fill:#000000;fill-opacity:1"
       id="path3761-4"
       sodipodi:cx="167"
       sodipodi:cy="88.362183"
       sodipodi:rx="6"
       sodipodi:ry="5"
       d="m 173,88.362183 c 0,2.761423 -2.68629,5 -6,5 -3.31371,0 -6,-2.238577 -6,-5 0,-2.761424 2.68629,-5 6,-5 3.31371,0 6,2.238576 6,5 z"
       transform="matrix(1.0632183,0,0,1.3292249,-90.650063,85.593063)" />
    <path
       sodipodi:type="arc"
       style="fill:#000000;fill-opacity:1"
       id="path3761-0"
       sodipodi:cx="167"
       sodipodi:cy="88.362183"
       sodipodi:rx="6"
       sodipodi:ry="5"
       d="m 173,88.362183 c 0,2.761423 -2.68629,5 -6,5 -3.31371,0 -6,-2.238577 -6,-5 0,-2.761424 2.68629,-5 6,-5 3.31371,0 6,2.238576 6,5 z"
       transform="matrix(1.0632183,0,0,1.3292249,-97.029374,33.753292)" />
    <path
       sodipodi:type="arc"
       style="fill:#000000;fill-opacity:1"
       id="path3761-9"
       sodipodi:cx="167"
       sodipodi:cy="88.362183"
       sodipodi:rx="6"
       sodipodi:ry="5"
       d="m 173,88.362183 c 0,2.761423 -2.68629,5 -6,5 -3.31371,0 -6,-2.238577 -6,-5 0,-2.761424 2.68629,-5 6,-5 3.31371,0 6,2.238576 6,5 z"
       transform="matrix(1.0632183,0,0,1.3292249,-49.82248,7.1687941)" />
    <path
       sodipodi:type="arc"
       style="fill:#000000;fill-opacity:1"
       id="path3761-48"
       sodipodi:cx="167"
       sodipodi:cy="88.362183"
       sodipodi:rx="6"
       sodipodi:ry="5"
       d="m 173,88.362183 c 0,2.761423 -2.68629,5 -6,5 -3.31371,0 -6,-2.238577 -6,-5 0,-2.761424 2.68629,-5 6,-5 3.31371,0 6,2.238576 6,5 z"
       transform="matrix(1.0632183,0,0,1.3292249,-63.856963,-38.024853)" />
    <path
       sodipodi:type="arc"
       style="fill:#000000;fill-opacity:1"
       id="path3761-2"
       sodipodi:cx="167"
       sodipodi:cy="88.362183"
       sodipodi:rx="6"
       sodipodi:ry="5"
       d="m 173,88.362183 c 0,2.761423 -2.68629,5 -6,5 -3.31371,0 -6,-2.238577 -6,-5 0,-2.761424 2.68629,-5 6,-5 3.31371,0 6,2.238576 6,5 z"
       transform="matrix(1.0632183,0,0,1.3292249,80.953349,-12.104967)" />
    <path
       sodipodi:type="arc"
       style="fill:#000000;fill-opacity:1"
       id="path3761-1-4"
       sodipodi:cx="167"
       sodipodi:cy="88.362183"
       sodipodi:rx="6"
       sodipodi:ry="5"
       d="m 173,88.362183 c 0,2.761423 -2.68629,5 -6,5 -3.31371,0 -6,-2.238577 -6,-5 0,-2.761424 2.68629,-5 6,-5 3.31371,0 6,2.238576 6,5 z"
       transform="matrix(1.0632183,0,0,1.3292249,91.798173,126.79904)" />
    <path
       sodipodi:type="arc"
       style="fill:#000000;fill-opacity:1"
       id="path3761-7-5"
       sodipodi:cx="167"
       sodipodi:cy="88.362183"
       sodipodi:rx="6"
       sodipodi:ry="5"
       d="m 173,88.362183 c 0,2.761423 -2.68629,5 -6,5 -3.31371,0 -6,-2.238577 -6,-5 0,-2.761424 2.68629,-5 6,-5 3.31371,0 6,2.238576 6,5 z"
       transform="matrix(1.0632183,0,0,1.3292249,108.38439,70.971586)" />
    <path
       sodipodi:type="arc"
       style="fill:#000000;fill-opacity:1"
       id="path3761-4-5"
       sodipodi:cx="167"
       sodipodi:cy="88.362183"
       sodipodi:rx="6"
       sodipodi:ry="5"
       d="m 173,88.362183 c 0,2.761423 -2.68629,5 -6,5 -3.31371,0 -6,-2.238577 -6,-5 0,-2.761424 2.68629,-5 6,-5 3.31371,0 6,2.238576 6,5 z"
       transform="matrix(1.0632183,0,0,1.3292249,66.280945,89.580735)" />
    <path
       sodipodi:type="arc"
       style="fill:#000000;fill-opacity:1"
       id="path3761-0-1"
       sodipodi:cx="167"
       sodipodi:cy="88.362183"
       sodipodi:rx="6"
       sodipodi:ry="5"
       d="m 173,88.362183 c 0,2.761423 -2.68629,5 -6,5 -3.31371,0 -6,-2.238577 -6,-5 0,-2.761424 2.68629,-5 6,-5 3.31371,0 6,2.238576 6,5 z"
       transform="matrix(1.0632183,0,0,1.3292249,56.711979,11.821081)" />
    <path
       sodipodi:type="arc"
       style="fill:#000000;fill-opacity:1"
       id="path3761-9-7"
       sodipodi:cx="167"
       sodipodi:cy="88.362183"
       sodipodi:rx="6"
       sodipodi:ry="5"
       d="m 173,88.362183 c 0,2.761423 -2.68629,5 -6,5 -3.31371,0 -6,-2.238577 -6,-5 0,-2.761424 2.68629,-5 6,-5 3.31371,0 6,2.238576 6,5 z"
       transform="matrix(1.0632183,0,0,1.3292249,105.10853,24.656469)" />
    <path
       sodipodi:type="arc"
       style="fill:#000000;fill-opacity:1"
       id="path3761-48-1"
       sodipodi:cx="167"
       sodipodi:cy="88.362183"
       sodipodi:rx="6"
       sodipodi:ry="5"
       d="m 173,88.362183 c 0,2.761423 -2.68629,5 -6,5 -3.31371,0 -6,-2.238577 -6,-5 0,-2.761424 2.68629,-5 6,-5 3.31371,0 6,2.238576 6,5 z"
       transform="matrix(1.0632183,0,0,1.3292249,93.074045,-34.037177)" />
    <path
       sodipodi:type="arc"
       style="fill:#000000;fill-opacity:1"
       id="path3761-2-1"
       sodipodi:cx="167"
       sodipodi:cy="88.362183"
       sodipodi:rx="6"
       sodipodi:ry="5"
       d="m 173,88.362183 c 0,2.761423 -2.68629,5 -6,5 -3.31371,0 -6,-2.238577 -6,-5 0,-2.761424 2.68629,-5 6,-5 3.31371,0 6,2.238576 6,5 z"
       transform="matrix(1.0632183,0,0,1.3292249,74.022324,43.582517)" />
    <path
       sodipodi:type="arc"
       style="fill:#000000;fill-opacity:1"
       id="path3761-2-5"
       sodipodi:cx="167"
       sodipodi:cy="88.362183"
       sodipodi:rx="6"
       sodipodi:ry="5"
       d="m 173,88.362183 c 0,2.761423 -2.68629,5 -6,5 -3.31371,0 -6,-2.238577 -6,-5 0,-2.761424 2.68629,-5 6,-5 3.31371,0 6,2.238576 6,5 z"
       transform="matrix(1.0632183,0,0,1.3292249,121.14302,-12.76958)" />
    <path
       sodipodi:type="arc"
       style="fill:#000000;fill-opacity:1"
       id="path3761-2-2"
       sodipodi:cx="167"
       sodipodi:cy="88.362183"
       sodipodi:rx="6"
       sodipodi:ry="5"
       d="m 173,88.362183 c 0,2.761423 -2.68629,5 -6,5 -3.31371,0 -6,-2.238577 -6,-5 0,-2.761424 2.68629,-5 6,-5 3.31371,0 6,2.238576 6,5 z"
       transform="matrix(1.0632183,0,0,1.3292249,116.03957,101.54376)" />
    <path
       sodipodi:type="arc"
       style="fill:#000000;fill-opacity:1"
       id="path3761-2-7"
       sodipodi:cx="167"
       sodipodi:cy="88.362183"
       sodipodi:rx="6"
       sodipodi:ry="5"
       d="m 173,88.362183 c 0,2.761423 -2.68629,5 -6,5 -3.31371,0 -6,-2.238577 -6,-5 0,-2.761424 2.68629,-5 6,-5 3.31371,0 6,2.238576 6,5 z"
       transform="matrix(1.0632183,0,0,1.3292249,130.71198,39.070191)" />
    <path
       style="fill:none;stroke:#000000;stroke-width:2.60454035px;stroke-linecap:butt;stroke-linejoin:miter;stroke-opacity:1;marker-end:url(#Arrow2Mend)"
       d="m 112.42463,79.42836 149.27584,3.987675"
       id="path3894"
       inkscape:connector-curvature="0"
       sodipodi:nodetypes="cc" />
    <path
       style="fill:none;stroke:#000000;stroke-width:2.60454035px;stroke-linecap:butt;stroke-linejoin:miter;stroke-opacity:1;marker-end:url(#Arrow2Mend)"
       d="M 86.269452,111.32976 250.21771,107.34208"
       id="path4708"
       inkscape:connector-curvature="0"
       sodipodi:nodetypes="cc" />
    <path
       style="fill:none;stroke:#000000;stroke-width:2.60454035px;stroke-linecap:butt;stroke-linejoin:miter;stroke-opacity:1;marker-end:url(#Arrow2Mend)"
       d="m 125.18325,124.622 2.55172,0 98.29308,3.48589"
       id="path4892"
       inkscape:connector-curvature="0"
       sodipodi:nodetypes="ccc" />
    <path
       style="fill:none;stroke:#000000;stroke-width:2.60454035px;stroke-linecap:butt;stroke-linejoin:miter;stroke-opacity:1;marker-end:url(#Arrow2Mend)"
       d="M 79.252211,151.87112 278.06254,186.58325"
       id="path4894"
       inkscape:connector-curvature="0"
       sodipodi:nodetypes="cc" />
    <path
       style="fill:none;stroke:#000000;stroke-width:2.60454035px;stroke-linecap:butt;stroke-linejoin:miter;stroke-opacity:1;marker-end:url(#Arrow2Mend)"
       d="M 86.907383,203.04627 262.3384,241.59379"
       id="path4896"
       inkscape:connector-curvature="0"
       sodipodi:nodetypes="cc" />
    <path
       style="fill:none;stroke:#000000;stroke-width:2.60454035px;stroke-linecap:butt;stroke-linejoin:miter;stroke-opacity:1;marker-end:url(#Arrow2Mend)"
       d="m 111.78669,239.59995 7.01725,-3.98767 173.51722,-126.27636"
       id="path4898"
       inkscape:connector-curvature="0"
       sodipodi:nodetypes="ccc" />
    <path
       style="fill:none;stroke:#000000;stroke-width:2.60454035px;stroke-linecap:butt;stroke-linejoin:miter;stroke-opacity:1;marker-end:url(#Arrow2Mend)"
       d="m 130.28669,181.11406 -1.91379,3.32306 107.1724,21.2676"
       id="path4900"
       inkscape:connector-curvature="0"
       sodipodi:nodetypes="ccc" />
    <text
       xml:space="preserve"
       style="font-size:24px;font-style:normal;font-weight:normal;line-height:125%;letter-spacing:0px;word-spacing:0px;fill:#000000;fill-opacity:1;stroke:none;font-family:Times New Roman;-inkscape-font-specification:Times New Roman"
       x="57.905796"
       y="75.802505"
       id="text3014"
       sodipodi:linespacing="125%"
       inkscape:transform-center-x="30.857052"
       transform="scale(1.0482906,0.95393395)"><tspan
         sodipodi:role="line"
         id="tspan3016"
         x="57.905796"
         y="75.802505"
         style="font-size:24px">A</tspan></text>
    <text
       xml:space="preserve"
       style="font-size:24px;font-style:normal;font-weight:normal;line-height:125%;letter-spacing:0px;word-spacing:0px;fill:#000000;fill-opacity:1;stroke:none;font-family:Times New Roman;-inkscape-font-specification:Times New Roman"
       x="206.99158"
       y="77.553139"
       id="text3018"
       sodipodi:linespacing="125%"
       transform="scale(1.0482906,0.95393395)"><tspan
         sodipodi:role="line"
         x="206.99158"
         y="77.553139"
         style="font-size:24px"
         id="tspan3137">B</tspan></text>
  </g>
</svg>
